<?xml version="1.0" encoding="us-ascii" standalone="no"?><svg xmlns="http://www.w3.org/2000/svg" xmlns:xlink="http://www.w3.org/1999/xlink" contentStyleType="text/css" height="192px" preserveAspectRatio="none" style="width:769px;height:192px;background:#FFFFFF;" version="1.1" viewBox="0 0 769 192" width="769px" zoomAndPan="magnify"><defs/><g><!--cluster SILO--><g id="cluster_SILO"><polygon fill="none" points="16,16,26,6,752,6,752,165,742,175,16,175,16,16" style="stroke:#181818;stroke-width:1.0;"/><line style="stroke:#181818;stroke-width:1.0;" x1="742" x2="752" y1="16" y2="6"/><line style="stroke:#181818;stroke-width:1.0;" x1="16" x2="742" y1="16" y2="16"/><line style="stroke:#181818;stroke-width:1.0;" x1="742" x2="742" y1="16" y2="175"/><text fill="#000000" font-family="sans-serif" font-size="14" font-weight="bold" lengthAdjust="spacing" textLength="35" x="362.5" y="31.9951">SILO</text></g><!--cluster SILO Api--><g id="cluster_SILO Api"><path d="M308.5,54 L374.5,54 A3.75,3.75 0 0 1 377,56.5 L384,76.2969 L725.5,76.2969 A2.5,2.5 0 0 1 728,78.7969 L728,148.5 A2.5,2.5 0 0 1 725.5,151 L308.5,151 A2.5,2.5 0 0 1 306,148.5 L306,56.5 A2.5,2.5 0 0 1 308.5,54 " fill="none" style="stroke:#000000;stroke-width:1.5;"/><line style="stroke:#000000;stroke-width:1.5;" x1="306" x2="384" y1="76.2969" y2="76.2969"/><text fill="#000000" font-family="sans-serif" font-size="14" font-weight="bold" lengthAdjust="spacing" textLength="65" x="310" y="68.9951">SILO Api</text></g><!--cluster SILO Preprocessing--><g id="cluster_SILO Preprocessing"><path d="M42.5,54 L198.5,54 A3.75,3.75 0 0 1 201,56.5 L208,76.2969 L279.5,76.2969 A2.5,2.5 0 0 1 282,78.7969 L282,148.5 A2.5,2.5 0 0 1 279.5,151 L42.5,151 A2.5,2.5 0 0 1 40,148.5 L40,56.5 A2.5,2.5 0 0 1 42.5,54 " fill="none" style="stroke:#000000;stroke-width:1.5;"/><line style="stroke:#000000;stroke-width:1.5;" x1="40" x2="208" y1="76.2969" y2="76.2969"/><text fill="#000000" font-family="sans-serif" font-size="14" font-weight="bold" lengthAdjust="spacing" textLength="155" x="44" y="68.9951">SILO Preprocessing</text></g><!--entity query--><g id="elem_query"><rect fill="#F1F1F1" height="46.2969" rx="2.5" ry="2.5" style="stroke:#181818;stroke-width:0.5;" width="133" x="375.5" y="89"/><rect fill="#F1F1F1" height="10" style="stroke:#181818;stroke-width:0.5;" width="15" x="488.5" y="94"/><rect fill="#F1F1F1" height="2" style="stroke:#181818;stroke-width:0.5;" width="4" x="486.5" y="96"/><rect fill="#F1F1F1" height="2" style="stroke:#181818;stroke-width:0.5;" width="4" x="486.5" y="100"/><text fill="#000000" font-family="sans-serif" font-size="14" lengthAdjust="spacing" textLength="93" x="390.5" y="121.9951">Query Engine</text></g><!--entity db--><g id="elem_db"><rect fill="#F1F1F1" height="46.2969" rx="2.5" ry="2.5" style="stroke:#181818;stroke-width:0.5;" width="168" x="544" y="89"/><rect fill="#F1F1F1" height="10" style="stroke:#181818;stroke-width:0.5;" width="15" x="692" y="94"/><rect fill="#F1F1F1" height="2" style="stroke:#181818;stroke-width:0.5;" width="4" x="690" y="96"/><rect fill="#F1F1F1" height="2" style="stroke:#181818;stroke-width:0.5;" width="4" x="690" y="100"/><text fill="#000000" font-family="sans-serif" font-size="14" lengthAdjust="spacing" textLength="128" x="559" y="121.9951">Runtime Database</text></g><!--entity Web API--><g id="elem_Web API"><ellipse cx="331" cy="112" fill="#F1F1F1" rx="8" ry="8" style="stroke:#181818;stroke-width:0.5;"/><text fill="#000000" font-family="sans-serif" font-size="14" lengthAdjust="spacing" textLength="56" x="303" y="141.9951">Web API</text></g><!--entity Preprocessing Database--><g id="elem_Preprocessing Database"><rect fill="#F1F1F1" height="46.2969" rx="2.5" ry="2.5" style="stroke:#181818;stroke-width:0.5;" width="210" x="56" y="89"/><rect fill="#F1F1F1" height="10" style="stroke:#181818;stroke-width:0.5;" width="15" x="246" y="94"/><rect fill="#F1F1F1" height="2" style="stroke:#181818;stroke-width:0.5;" width="4" x="244" y="96"/><rect fill="#F1F1F1" height="2" style="stroke:#181818;stroke-width:0.5;" width="4" x="244" y="100"/><text fill="#000000" font-family="sans-serif" font-size="14" lengthAdjust="spacing" textLength="170" x="71" y="121.9951">Preprocessing Database</text></g><!--link Web API to query--><g id="link_Web API_query"><path d="M340.11,112 C351.78,112 357.46,112 369.13,112 " fill="none" id="Web API-to-query" style="stroke:#181818;stroke-width:1.0;"/><polygon fill="#181818" points="375.13,112,366.13,108,370.13,112,366.13,116,375.13,112" style="stroke:#181818;stroke-width:1.0;"/></g><!--link query to db--><g id="link_query_db"><path d="M508.84,112 C520.48,112 526.12,112 537.75,112 " fill="none" id="query-to-db" style="stroke:#181818;stroke-width:1.0;"/><polygon fill="#181818" points="543.75,112,534.75,108,538.75,112,534.75,116,543.75,112" style="stroke:#181818;stroke-width:1.0;"/></g><!--SRC=[ROxB2i8m44Nt-OfBzlw2KD15GR3gmlKa7KAGJcAJBaJwxz9nuNCtd3btvahg6QTsjyVT09dyXGB3Acboj8e1duQSXAN27YOURzXAYC8ML71TmBTrdAJ6WR6XIexAq-oTQlRC3atNMgpMRscT5gJQR7xwT2FdCNak9Khuq-nZ__ginsRp0000]--></g></svg>