<?xml version="1.0" encoding="us-ascii" standalone="no"?><svg xmlns="http://www.w3.org/2000/svg" xmlns:xlink="http://www.w3.org/1999/xlink" contentStyleType="text/css" height="364px" preserveAspectRatio="none" style="width:991px;height:364px;background:#FFFFFF;" version="1.1" viewBox="0 0 991 364" width="991px" zoomAndPan="magnify"><defs/><g><g id="cluster_##2"><path d="M624.7181,15.0371 C628.5449,8.6722 632.4585,8.2244 636.7737,14.574 C640.8265,6.295 646.6808,6.3574 651.5919,13.7633 C654.4361,6.688 660.2681,6 664.4267,12.5227 C667.6514,7.7944 672.4707,7.1789 675.0438,13.1681 C680.1044,6.5225 684.6647,6.5852 689.5385,13.3698 C693.46,7.4542 698.1814,7.7922 701.8241,13.6605 C706.1391,8.4074 712.5792,8.2074 715.0417,15.5972 C718.3504,9.3607 722.4197,9.5301 726.1866,15.1672 C734.0824,16.4488 735.1716,22.1756 730.7132,27.8623 C738.3467,30.1932 740.217,37.3787 733.721,42.5943 C739.1014,47.9433 737.5519,53.5073 730.54,55.892 C734.8388,60.7772 733.5121,65.8553 726.7489,66.9472 C724.0645,73.6854 717.8959,75.0716 713.6023,68.5415 C710.3187,74.4427 706.9362,75.6034 702.1424,70.0528 C699.0296,76.177 692.3298,77.0053 688.6694,70.6438 C684.6163,77.7005 679.8423,76.6175 675.4894,70.9545 C671.3164,75.9274 667.4092,77.1195 663.2695,70.9182 C659.1461,75.9502 654.5709,76.7944 651.1092,70.2247 C646.2777,76.1991 639.9345,75.3966 637.4045,67.8858 C633.4292,74.6349 628.6495,73.7651 624.4995,68.0668 C616.9022,64.7936 618.2943,58.8094 623.5903,54.6617 C618.4407,50.8604 618.2004,45.5187 623.8721,41.9574 C617.2544,37.4503 617.3612,32.8951 624.4464,28.995 C617.8356,24.0215 618.1468,19.754 624.7181,15.0371 " fill="none" style="stroke:#181818;stroke-width:1.0;"/></g><!--cluster files--><g id="cluster_files"><path d="M669.5,254.7379 L894.5,254.7379 A3.75,3.75 0 0 1 897,257.2379 L904,277.0348 L981.5,277.0348 A2.5,2.5 0 0 1 984,279.5348 L984,355.2379 A2.5,2.5 0 0 1 981.5,357.7379 L669.5,357.7379 A2.5,2.5 0 0 1 667,355.2379 L667,257.2379 A2.5,2.5 0 0 1 669.5,254.7379 " fill="none" style="stroke:#000000;stroke-width:1.5;"/><line style="stroke:#000000;stroke-width:1.5;" x1="667" x2="904" y1="277.0348" y2="277.0348"/><text fill="#000000" font-family="sans-serif" font-size="14" font-weight="bold" lengthAdjust="spacing" textLength="224" x="671" y="269.733">Folder with serialized states</text></g><!--cluster SILO-LAPIS runtime--><g id="cluster_SILO-LAPIS runtime"><path d="M160.5,257.7379 L312.5,257.7379 A3.75,3.75 0 0 1 315,260.2379 L322,280.0348 L466.5,280.0348 A2.5,2.5 0 0 1 469,282.5348 L469,352.2379 A2.5,2.5 0 0 1 466.5,354.7379 L160.5,354.7379 A2.5,2.5 0 0 1 158,352.2379 L158,260.2379 A2.5,2.5 0 0 1 160.5,257.7379 " fill="none" style="stroke:#000000;stroke-width:1.5;"/><line style="stroke:#000000;stroke-width:1.5;" x1="158" x2="322" y1="280.0348" y2="280.0348"/><text fill="#000000" font-family="sans-serif" font-size="14" font-weight="bold" lengthAdjust="spacing" textLength="151" x="162" y="272.733">SILO-LAPIS runtime</text></g><!--entity input--><g id="elem_input"><path d="M632,25.2379 L632,56.5348 A2.5,2.5 0 0 0 634.5,59.0348 L715.5,59.0348 A2.5,2.5 0 0 0 718,56.5348 L718,32.7379 L708,22.7379 L634.5,22.7379 A2.5,2.5 0 0 0 632,25.2379 " fill="#F1F1F1" style="stroke:#181818;stroke-width:0.5;"/><path d="M708,22.7379 L708,30.2379 A2.5,2.5 0 0 0 710.5,32.7379 L718,32.7379 " fill="#F1F1F1" style="stroke:#181818;stroke-width:0.5;"/><text fill="#000000" font-family="sans-serif" font-size="14" lengthAdjust="spacing" textLength="66" x="642" y="45.733">input files</text></g><!--entity oldstate.silo--><g id="elem_oldstate.silo"><path d="M856.5,300.2379 L856.5,331.5348 A2.5,2.5 0 0 0 859,334.0348 L957,334.0348 A2.5,2.5 0 0 0 959.5,331.5348 L959.5,307.7379 L949.5,297.7379 L859,297.7379 A2.5,2.5 0 0 0 856.5,300.2379 " fill="#F1F1F1" style="stroke:#181818;stroke-width:0.5;"/><path d="M949.5,297.7379 L949.5,305.2379 A2.5,2.5 0 0 0 952,307.7379 L959.5,307.7379 " fill="#F1F1F1" style="stroke:#181818;stroke-width:0.5;"/><text fill="#000000" font-family="sans-serif" font-size="14" lengthAdjust="spacing" textLength="83" x="866.5" y="320.733">oldstate.silo</text></g><!--entity newstate.silo--><g id="elem_newstate.silo"><path d="M710.5,300.2379 L710.5,331.5348 A2.5,2.5 0 0 0 713,334.0348 L819,334.0348 A2.5,2.5 0 0 0 821.5,331.5348 L821.5,307.7379 L811.5,297.7379 L713,297.7379 A2.5,2.5 0 0 0 710.5,300.2379 " fill="#F1F1F1" style="stroke:#181818;stroke-width:0.5;"/><path d="M811.5,297.7379 L811.5,305.2379 A2.5,2.5 0 0 0 814,307.7379 L821.5,307.7379 " fill="#F1F1F1" style="stroke:#181818;stroke-width:0.5;"/><text fill="#000000" font-family="sans-serif" font-size="14" lengthAdjust="spacing" textLength="91" x="720.5" y="320.733">newstate.silo</text></g><!--entity siloApi--><g id="elem_siloApi"><rect fill="#ADD8E6" height="46.2969" rx="2.5" ry="2.5" style="stroke:#181818;stroke-width:0.5;" width="95" x="357.5" y="292.7379"/><rect fill="#ADD8E6" height="10" style="stroke:#181818;stroke-width:0.5;" width="15" x="432.5" y="297.7379"/><rect fill="#ADD8E6" height="2" style="stroke:#181818;stroke-width:0.5;" width="4" x="430.5" y="299.7379"/><rect fill="#ADD8E6" height="2" style="stroke:#181818;stroke-width:0.5;" width="4" x="430.5" y="303.7379"/><text fill="#000000" font-family="sans-serif" font-size="14" lengthAdjust="spacing" textLength="55" x="372.5" y="325.733">SILO Api</text></g><!--entity LAPIS--><g id="elem_LAPIS"><rect fill="#ADD8E6" height="46.2969" rx="2.5" ry="2.5" style="stroke:#181818;stroke-width:0.5;" width="77" x="174.5" y="292.7379"/><rect fill="#ADD8E6" height="10" style="stroke:#181818;stroke-width:0.5;" width="15" x="231.5" y="297.7379"/><rect fill="#ADD8E6" height="2" style="stroke:#181818;stroke-width:0.5;" width="4" x="229.5" y="299.7379"/><rect fill="#ADD8E6" height="2" style="stroke:#181818;stroke-width:0.5;" width="4" x="229.5" y="303.7379"/><text fill="#000000" font-family="sans-serif" font-size="14" lengthAdjust="spacing" textLength="37" x="189.5" y="325.733">LAPIS</text></g><!--entity siloPreprocessing--><g id="elem_siloPreprocessing"><rect fill="#ADD8E6" height="46.2969" rx="2.5" ry="2.5" style="stroke:#181818;stroke-width:0.5;" width="174" x="588" y="137.7379"/><rect fill="#ADD8E6" height="10" style="stroke:#181818;stroke-width:0.5;" width="15" x="742" y="142.7379"/><rect fill="#ADD8E6" height="2" style="stroke:#181818;stroke-width:0.5;" width="4" x="740" y="144.7379"/><rect fill="#ADD8E6" height="2" style="stroke:#181818;stroke-width:0.5;" width="4" x="740" y="148.7379"/><text fill="#000000" font-family="sans-serif" font-size="14" lengthAdjust="spacing" textLength="134" x="603" y="170.733">SILO Preprocessing</text></g><!--entity User--><g id="elem_User"><ellipse cx="22" cy="286.2379" fill="#F1F1F1" rx="8" ry="8" style="stroke:#181818;stroke-width:0.5;"/><path d="M22,294.2379 L22,321.2379 M9,302.2379 L35,302.2379 M22,321.2379 L9,336.2379 M22,321.2379 L35,336.2379 " fill="none" style="stroke:#181818;stroke-width:0.5;"/><text fill="#000000" font-family="sans-serif" font-size="14" lengthAdjust="spacing" textLength="32" x="6" y="350.733">User</text></g><!--link User to LAPIS--><g id="link_User_LAPIS"><path d="M38.28,315.7379 C68.15,315.7379 126.42,315.7379 168.13,315.7379 " fill="none" id="User-to-LAPIS" style="stroke:#181818;stroke-width:1.0;"/><polygon fill="#181818" points="174.13,315.7379,165.13,311.7379,169.13,315.7379,165.13,319.7379,174.13,315.7379" style="stroke:#181818;stroke-width:1.0;"/><text fill="#000000" font-family="sans-serif" font-size="13" lengthAdjust="spacing" textLength="100" x="56.25" y="308.8048">simplified query</text></g><!--reverse link User to LAPIS--><g id="link_User_LAPIS"><path d="M43.7657,323.8311 C57.5157,328.7011 72.29,333.1079 90.75,335.7379 C118.75,339.7279 150.24,334.3379 174.25,328.1579 " fill="none" id="User-backto-LAPIS" style="stroke:#181818;stroke-width:1.0;"/><polygon fill="#181818" points="38.11,321.8279,45.2582,328.6031,42.8231,323.4972,47.929,321.0622,38.11,321.8279" style="stroke:#181818;stroke-width:1.0;"/><text fill="#000000" font-family="sans-serif" font-size="13" lengthAdjust="spacing" textLength="29" x="91.75" y="331.8048">data</text></g><!--link LAPIS to siloApi--><g id="link_LAPIS_siloApi"><path d="M251.85,315.7379 C282.32,315.7379 318.85,315.7379 351.36,315.7379 " fill="none" id="LAPIS-to-siloApi" style="stroke:#181818;stroke-width:1.0;"/><polygon fill="#181818" points="357.36,315.7379,348.36,311.7379,352.36,315.7379,348.36,319.7379,357.36,315.7379" style="stroke:#181818;stroke-width:1.0;"/><text fill="#000000" font-family="sans-serif" font-size="13" lengthAdjust="spacing" textLength="69" x="270" y="308.8048">SILO query</text></g><!--reverse link LAPIS to siloApi--><g id="link_LAPIS_siloApi"><path d="M257.4637,329.5276 C269.3137,332.7176 276.69,334.1479 289,335.7379 C311.6,338.6579 336.52,335.2479 357.45,330.4579 " fill="none" id="LAPIS-backto-siloApi" style="stroke:#181818;stroke-width:1.0;"/><polygon fill="#181818" points="251.67,327.9679,259.3208,334.1699,256.4981,329.2676,261.4004,326.4449,251.67,327.9679" style="stroke:#181818;stroke-width:1.0;"/><text fill="#000000" font-family="sans-serif" font-size="13" lengthAdjust="spacing" textLength="29" x="290" y="331.8048">data</text></g><!--reverse link siloApi to files--><g id="link_siloApi_files"><path d="M458.65,315.7379 C496.195,315.7379 543.535,315.7379 588.56,315.7379 C611.0725,315.7379 631.5063,315.7379 646.8475,315.7379 C654.5181,315.7379 660.9156,315.7379 665.6633,315.7379 C665.96,315.7379 666.2503,315.7379 666.534,315.7379 C666.6759,315.7379 666.8162,315.7379 666.9547,315.7379 " fill="none" id="siloApi-backto-files" style="stroke:#181818;stroke-width:1.0;"/><polygon fill="#181818" points="452.65,315.7379,461.65,319.7379,457.65,315.7379,461.65,311.7379,452.65,315.7379" style="stroke:#181818;stroke-width:1.0;"/><text fill="#000000" font-family="sans-serif" font-size="13" lengthAdjust="spacing" textLength="186" x="470.57" y="308.8048">reads newest serialized state</text></g><!--link siloPreprocessing to files--><g id="link_siloPreprocessing_files"><path d="M675,183.9879 C675,194.4304 675,207.6517 675,221.6517 C675,228.6517 675,235.8464 675,242.9857 C675,246.5554 675,250.1113 675,253.6221 C675,253.8415 675,248.0607 675,248.2798 " fill="none" id="siloPreprocessing-to-files" style="stroke:#181818;stroke-width:1.0;"/><polygon fill="#181818" points="675,254.2798,679,245.2798,675,249.2798,671,245.2798,675,254.2798" style="stroke:#181818;stroke-width:1.0;"/><text fill="#000000" font-family="sans-serif" font-size="13" lengthAdjust="spacing" textLength="96" x="676" y="226.8048">serializes state</text></g><!--link input to siloPreprocessing--><g id="link_input_siloPreprocessing"><path d="M675,58.8979 C675,79.7379 675,108.9179 675,131.7279 " fill="none" id="input-to-siloPreprocessing" style="stroke:#181818;stroke-width:1.0;"/><polygon fill="#181818" points="675,137.7279,679,128.7279,675,132.7279,671,128.7279,675,137.7279" style="stroke:#181818;stroke-width:1.0;"/><text fill="#000000" font-family="sans-serif" font-size="13" lengthAdjust="spacing" textLength="226" x="676" y="103.8048">reads externally provided input files</text></g><!--SRC=[PLBDRiCW3Bxp51OxPmyGJPDwcLIfqYfLUm2MEAar0XJ8kcxAky-59AFh1R2_7nj3e-tOmey0w4WZI39kZEaS9AW0AHQJwAnkqODyoVkPuX42UbAQlh6545MS5KbREB8WeO-1j9Lhsk2vJ4-YiOEp1aq4UTZkNc7lqNdRO0Xa-kHyPTvauK5JVuplUaJXLFEXUipYQhVPRm_WHnDfG9cw-U-_SRIwyhdqAidPgG0dePfeFRpnzOMuhb0zpxIQtGQdgIEUoMb4Vyc4fsebj2egaGEMBSLhI3rbIKPPyuScrH8oaeTSWqVL1k1POeXtxo7k1rPnpKMxqiDCpszVpMtT2fTI-1NH6wNr1HZzf9QB5Nz6_080]--></g></svg>